<?xml version="1.0" encoding="utf-8"?><!DOCTYPE svg PUBLIC "-//W3C//DTD SVG 1.1//EN" "http://www.w3.org/Graphics/SVG/1.1/DTD/svg11.dtd"><svg xmlns="http://www.w3.org/2000/svg" xml:space="preserve" xmlns:xlink="http://www.w3.org/1999/xlink" width="812" height="812" viewBox="0 0 812 812">
<rect width="812" height="812" fill="#ffffff" x="0" y="0" />
<g fill="#000000">
<g transform="translate(280,56) scale(4.8066666666667)"><path d="M4.7,0.4c-1.1,0.4-2.4,0.4-3.5,0L0,0c0,3.3,2.7,6,6,6V0L4.7,0.4z"/></g>
<g transform="translate(308,56) scale(4.8066666666667)"><rect width="6" height="6"/></g>
<g transform="translate(336,56) scale(4.8066666666667)"><path d="M0,0v6l1.3-0.4c1.1-0.4,2.4-0.4,3.5,0L6,6C6,2.7,3.3,0,0,0z"/></g>
<g transform="translate(392,56) scale(4.8066666666667)"><path d="M6,6H0V3c0-1.7,1.3-3,3-3l3,0V6z"/></g>
<g transform="translate(420,56) scale(4.8066666666667)"><rect width="6" height="6"/></g>
<g transform="translate(448,56) scale(4.8066666666667)"><rect width="6" height="6"/></g>
<g transform="translate(476,56) scale(4.8066666666667)"><path d="M6,6H0V0l3,0c1.7,0,3,1.3,3,3V6z"/></g>
<g transform="translate(308,84) scale(4.8066666666667)"><rect width="6" height="6"/></g>
<g transform="translate(364,84) scale(4.8066666666667)"><path d="M4.7,0.4c-1.1,0.4-2.4,0.4-3.5,0L0,0c0,3.3,2.7,6,6,6V0L4.7,0.4z"/></g>
<g transform="translate(392,84) scale(4.8066666666667)"><rect width="6" height="6"/></g>
<g transform="translate(420,84) scale(4.8066666666667)"><rect width="6" height="6"/></g>
<g transform="translate(448,84) scale(4.8066666666667)"><rect width="6" height="6"/></g>
<g transform="translate(476,84) scale(4.8066666666667)"><rect width="6" height="6"/></g>
<g transform="translate(504,84) scale(4.8066666666667)"><path d="M0,0v6l1.3-0.4c1.1-0.4,2.4-0.4,3.5,0L6,6C6,2.7,3.3,0,0,0z"/></g>
<g transform="translate(308,112) scale(4.8066666666667)"><rect width="6" height="6"/></g>
<g transform="translate(392,112) scale(4.8066666666667)"><rect width="6" height="6"/></g>
<g transform="translate(420,112) scale(4.8066666666667)"><path d="M3,6H0V0l6,0v3C6,4.7,4.7,6,3,6z"/></g>
<g transform="translate(476,112) scale(4.8066666666667)"><rect width="6" height="6"/></g>
<g transform="translate(308,140) scale(4.8066666666667)"><rect width="6" height="6"/></g>
<g transform="translate(364,140) scale(4.8066666666667)"><path d="M6,6H0V3c0-1.7,1.3-3,3-3l3,0V6z"/></g>
<g transform="translate(392,140) scale(4.8066666666667)"><path d="M3,6H0V0l6,0v3C6,4.7,4.7,6,3,6z"/></g>
<g transform="translate(448,140) scale(4.8066666666667)"><path d="M4.7,0.4c-1.1,0.4-2.4,0.4-3.5,0L0,0c0,3.3,2.7,6,6,6V0L4.7,0.4z"/></g>
<g transform="translate(476,140) scale(4.8066666666667)"><rect width="6" height="6"/></g>
<g transform="translate(280,168) scale(4.8066666666667)"><path d="M6,6H0V3c0-1.7,1.3-3,3-3l3,0V6z"/></g>
<g transform="translate(308,168) scale(4.8066666666667)"><rect width="6" height="6"/></g>
<g transform="translate(364,168) scale(4.8066666666667)"><rect width="6" height="6"/></g>
<g transform="translate(476,168) scale(4.8066666666667)"><path d="M6,6H3C1.3,6,0,4.7,0,3V0l6,0V6z"/></g>
<g transform="translate(504,168) scale(4.8066666666667)"><path d="M0,0v6l1.3-0.4c1.1-0.4,2.4-0.4,3.5,0L6,6C6,2.7,3.3,0,0,0z"/></g>
<g transform="translate(280,196) scale(4.8066666666667)"><rect width="6" height="6"/></g>
<g transform="translate(308,196) scale(4.8066666666667)"><rect width="6" height="6"/></g>
<g transform="translate(336,196) scale(4.8066666666667)"><rect width="6" height="6"/></g>
<g transform="translate(364,196) scale(4.8066666666667)"><rect width="6" height="6"/></g>
<g transform="translate(392,196) scale(4.8066666666667)"><path d="M6,6H0V0l3,0c1.7,0,3,1.3,3,3V6z"/></g>
<g transform="translate(280,224) scale(4.8066666666667)"><path d="M0,0l0.4,1.3c0.4,1.1,0.4,2.4,0,3.5L0,6c3.3,0,6-2.7,6-6H0z"/></g>
<g transform="translate(336,224) scale(4.8066666666667)"><path d="M0,0l0.4,1.3c0.4,1.1,0.4,2.4,0,3.5L0,6c3.3,0,6-2.7,6-6H0z"/></g>
<g transform="translate(392,224) scale(4.8066666666667)"><rect width="6" height="6"/></g>
<g transform="translate(448,224) scale(4.8066666666667)"><path d="M6,6H0v0c0-3.3,2.7-6,6-6h0L5.6,1.3c-0.4,1.1-0.4,2.4,0,3.5L6,6z"/></g>
<g transform="translate(504,224) scale(4.8066666666667)"><path d="M6,6H0v0c0-3.3,2.7-6,6-6h0L5.6,1.3c-0.4,1.1-0.4,2.4,0,3.5L6,6z"/></g>
<g transform="translate(308,252) scale(4.8066666666667)"><path d="M6,6H0v0c0-3.3,2.7-6,6-6h0L5.6,1.3c-0.4,1.1-0.4,2.4,0,3.5L6,6z"/></g>
<g transform="translate(364,252) scale(4.8066666666667)"><path d="M6,6H0V3c0-1.7,1.3-3,3-3l3,0V6z"/></g>
<g transform="translate(392,252) scale(4.8066666666667)"><rect width="6" height="6"/></g>
<g transform="translate(448,252) scale(4.8066666666667)"><path d="M0,0l0.4,1.3c0.4,1.1,0.4,2.4,0,3.5L0,6c3.3,0,6-2.7,6-6H0z"/></g>
<g transform="translate(504,252) scale(4.8066666666667)"><rect width="6" height="6"/></g>
<g transform="translate(84,280) scale(4.8066666666667)"><path d="M6,6H0V3c0-1.7,1.3-3,3-3l3,0V6z"/></g>
<g transform="translate(112,280) scale(4.8066666666667)"><rect width="6" height="6"/></g>
<g transform="translate(140,280) scale(4.8066666666667)"><rect width="6" height="6"/></g>
<g transform="translate(168,280) scale(4.8066666666667)"><rect width="6" height="6"/></g>
<g transform="translate(196,280) scale(4.8066666666667)"><rect width="6" height="6"/></g>
<g transform="translate(224,280) scale(4.8066666666667)"><rect width="6" height="6"/></g>
<g transform="translate(252,280) scale(4.8066666666667)"><path d="M6,6H0V0l3,0c1.7,0,3,1.3,3,3V6z"/></g>
<g transform="translate(308,280) scale(4.8066666666667)"><path d="M6,6H3C1.3,6,0,4.7,0,3V0l6,0V6z"/></g>
<g transform="translate(336,280) scale(4.8066666666667)"><rect width="6" height="6"/></g>
<g transform="translate(364,280) scale(4.8066666666667)"><rect width="6" height="6"/></g>
<g transform="translate(392,280) scale(4.8066666666667)"><path d="M3,6H0V0l6,0v3C6,4.7,4.7,6,3,6z"/></g>
<g transform="translate(504,280) scale(4.8066666666667)"><path d="M0,0l0.4,1.3c0.4,1.1,0.4,2.4,0,3.5L0,6c3.3,0,6-2.7,6-6H0z"/></g>
<g transform="translate(588,280) scale(4.8066666666667)"><path d="M6,6H0V3c0-1.7,1.3-3,3-3l3,0V6z"/></g>
<g transform="translate(616,280) scale(4.8066666666667)"><path d="M0,0v6l1.3-0.4c1.1-0.4,2.4-0.4,3.5,0L6,6C6,2.7,3.3,0,0,0z"/></g>
<g transform="translate(728,280) scale(4.8066666666667)"><circle cx="3" cy="3" r="3"/></g>
<g transform="translate(56,308) scale(4.8066666666667)"><path d="M6,6H0V3c0-1.7,1.3-3,3-3l3,0V6z"/></g>
<g transform="translate(84,308) scale(4.8066666666667)"><rect width="6" height="6"/></g>
<g transform="translate(112,308) scale(4.8066666666667)"><path d="M3,6H0V0l6,0v3C6,4.7,4.7,6,3,6z"/></g>
<g transform="translate(252,308) scale(4.8066666666667)"><path d="M0,0l0.4,1.3c0.4,1.1,0.4,2.4,0,3.5L0,6c3.3,0,6-2.7,6-6H0z"/></g>
<g transform="translate(364,308) scale(4.8066666666667)"><path d="M0,0l0.4,1.3c0.4,1.1,0.4,2.4,0,3.5L0,6c3.3,0,6-2.7,6-6H0z"/></g>
<g transform="translate(420,308) scale(4.8066666666667)"><path d="M6,6H0V3c0-1.7,1.3-3,3-3l3,0V6z"/></g>
<g transform="translate(448,308) scale(4.8066666666667)"><rect width="6" height="6"/></g>
<g transform="translate(476,308) scale(4.8066666666667)"><path d="M6,6H0V0l3,0c1.7,0,3,1.3,3,3V6z"/></g>
<g transform="translate(532,308) scale(4.8066666666667)"><circle cx="3" cy="3" r="3"/></g>
<g transform="translate(588,308) scale(4.8066666666667)"><rect width="6" height="6"/></g>
<g transform="translate(700,308) scale(4.8066666666667)"><path d="M6,6H0v0c0-3.3,2.7-6,6-6h0L5.6,1.3c-0.4,1.1-0.4,2.4,0,3.5L6,6z"/></g>
<g transform="translate(56,336) scale(4.8066666666667)"><path d="M0,0l0.4,1.3c0.4,1.1,0.4,2.4,0,3.5L0,6c3.3,0,6-2.7,6-6H0z"/></g>
<g transform="translate(168,336) scale(4.8066666666667)"><path d="M6,6H0v0c0-3.3,2.7-6,6-6h0L5.6,1.3c-0.4,1.1-0.4,2.4,0,3.5L6,6z"/></g>
<g transform="translate(224,336) scale(4.8066666666667)"><circle cx="3" cy="3" r="3"/></g>
<g transform="translate(392,336) scale(4.8066666666667)"><path d="M4.7,0.4c-1.1,0.4-2.4,0.4-3.5,0L0,0c0,3.3,2.7,6,6,6V0L4.7,0.4z"/></g>
<g transform="translate(420,336) scale(4.8066666666667)"><rect width="6" height="6"/></g>
<g transform="translate(448,336) scale(4.8066666666667)"><rect width="6" height="6"/></g>
<g transform="translate(476,336) scale(4.8066666666667)"><rect width="6" height="6"/></g>
<g transform="translate(504,336) scale(4.8066666666667)"><path d="M0,0v6l1.3-0.4c1.1-0.4,2.4-0.4,3.5,0L6,6C6,2.7,3.3,0,0,0z"/></g>
<g transform="translate(560,336) scale(4.8066666666667)"><path d="M4.7,0.4c-1.1,0.4-2.4,0.4-3.5,0L0,0c0,3.3,2.7,6,6,6V0L4.7,0.4z"/></g>
<g transform="translate(588,336) scale(4.8066666666667)"><rect width="6" height="6"/></g>
<g transform="translate(616,336) scale(4.8066666666667)"><rect width="6" height="6"/></g>
<g transform="translate(644,336) scale(4.8066666666667)"><path d="M0,0v6l1.3-0.4c1.1-0.4,2.4-0.4,3.5,0L6,6C6,2.7,3.3,0,0,0z"/></g>
<g transform="translate(700,336) scale(4.8066666666667)"><path d="M6,6H3C1.3,6,0,4.7,0,3V0l6,0V6z"/></g>
<g transform="translate(728,336) scale(4.8066666666667)"><path d="M6,6H0V0l3,0c1.7,0,3,1.3,3,3V6z"/></g>
<g transform="translate(168,364) scale(4.8066666666667)"><path d="M0,0l0.4,1.3c0.4,1.1,0.4,2.4,0,3.5L0,6c3.3,0,6-2.7,6-6H0z"/></g>
<g transform="translate(280,364) scale(4.8066666666667)"><path d="M6,6H0v0c0-3.3,2.7-6,6-6h0L5.6,1.3c-0.4,1.1-0.4,2.4,0,3.5L6,6z"/></g>
<g transform="translate(420,364) scale(4.8066666666667)"><path d="M0,0l0.4,1.3c0.4,1.1,0.4,2.4,0,3.5L0,6c3.3,0,6-2.7,6-6H0z"/></g>
<g transform="translate(476,364) scale(4.8066666666667)"><rect width="6" height="6"/></g>
<g transform="translate(532,364) scale(4.8066666666667)"><path d="M6,6H0v0c0-3.3,2.7-6,6-6h0L5.6,1.3c-0.4,1.1-0.4,2.4,0,3.5L6,6z"/></g>
<g transform="translate(616,364) scale(4.8066666666667)"><rect width="6" height="6"/></g>
<g transform="translate(728,364) scale(4.8066666666667)"><rect width="6" height="6"/></g>
<g transform="translate(56,392) scale(4.8066666666667)"><path d="M6,6H0v0c0-3.3,2.7-6,6-6h0L5.6,1.3c-0.4,1.1-0.4,2.4,0,3.5L6,6z"/></g>
<g transform="translate(112,392) scale(4.8066666666667)"><circle cx="3" cy="3" r="3"/></g>
<g transform="translate(224,392) scale(4.8066666666667)"><circle cx="3" cy="3" r="3"/></g>
<g transform="translate(280,392) scale(4.8066666666667)"><rect width="6" height="6"/></g>
<g transform="translate(336,392) scale(4.8066666666667)"><circle cx="3" cy="3" r="3"/></g>
<g transform="translate(448,392) scale(4.8066666666667)"><path d="M4.7,0.4c-1.1,0.4-2.4,0.4-3.5,0L0,0c0,3.3,2.7,6,6,6V0L4.7,0.4z"/></g>
<g transform="translate(476,392) scale(4.8066666666667)"><rect width="6" height="6"/></g>
<g transform="translate(532,392) scale(4.8066666666667)"><path d="M6,6H3C1.3,6,0,4.7,0,3V0l6,0V6z"/></g>
<g transform="translate(560,392) scale(4.8066666666667)"><path d="M0,0v6l1.3-0.4c1.1-0.4,2.4-0.4,3.5,0L6,6C6,2.7,3.3,0,0,0z"/></g>
<g transform="translate(616,392) scale(4.8066666666667)"><path d="M0,0l0.4,1.3c0.4,1.1,0.4,2.4,0,3.5L0,6c3.3,0,6-2.7,6-6H0z"/></g>
<g transform="translate(672,392) scale(4.8066666666667)"><path d="M4.7,0.4c-1.1,0.4-2.4,0.4-3.5,0L0,0c0,3.3,2.7,6,6,6V0L4.7,0.4z"/></g>
<g transform="translate(700,392) scale(4.8066666666667)"><rect width="6" height="6"/></g>
<g transform="translate(728,392) scale(4.8066666666667)"><path d="M3,6H0V0l6,0v3C6,4.7,4.7,6,3,6z"/></g>
<g transform="translate(56,420) scale(4.8066666666667)"><rect width="6" height="6"/></g>
<g transform="translate(168,420) scale(4.8066666666667)"><circle cx="3" cy="3" r="3"/></g>
<g transform="translate(280,420) scale(4.8066666666667)"><rect width="6" height="6"/></g>
<g transform="translate(308,420) scale(4.8066666666667)"><path d="M6,6H0V0l3,0c1.7,0,3,1.3,3,3V6z"/></g>
<g transform="translate(392,420) scale(4.8066666666667)"><path d="M6,6H0v0c0-3.3,2.7-6,6-6h0L5.6,1.3c-0.4,1.1-0.4,2.4,0,3.5L6,6z"/></g>
<g transform="translate(476,420) scale(4.8066666666667)"><path d="M6,6H3C1.3,6,0,4.7,0,3V0l6,0V6z"/></g>
<g transform="translate(504,420) scale(4.8066666666667)"><path d="M0,0v6l1.3-0.4c1.1-0.4,2.4-0.4,3.5,0L6,6C6,2.7,3.3,0,0,0z"/></g>
<g transform="translate(588,420) scale(4.8066666666667)"><path d="M6,6H0v0c0-3.3,2.7-6,6-6h0L5.6,1.3c-0.4,1.1-0.4,2.4,0,3.5L6,6z"/></g>
<g transform="translate(644,420) scale(4.8066666666667)"><path d="M6,6H0v0c0-3.3,2.7-6,6-6h0L5.6,1.3c-0.4,1.1-0.4,2.4,0,3.5L6,6z"/></g>
<g transform="translate(700,420) scale(4.8066666666667)"><rect width="6" height="6"/></g>
<g transform="translate(56,448) scale(4.8066666666667)"><rect width="6" height="6"/></g>
<g transform="translate(140,448) scale(4.8066666666667)"><circle cx="3" cy="3" r="3"/></g>
<g transform="translate(196,448) scale(4.8066666666667)"><path d="M6,6H0V3c0-1.7,1.3-3,3-3l3,0V6z"/></g>
<g transform="translate(224,448) scale(4.8066666666667)"><path d="M0,0v6l1.3-0.4c1.1-0.4,2.4-0.4,3.5,0L6,6C6,2.7,3.3,0,0,0z"/></g>
<g transform="translate(280,448) scale(4.8066666666667)"><path d="M6,6H3C1.3,6,0,4.7,0,3V0l6,0V6z"/></g>
<g transform="translate(308,448) scale(4.8066666666667)"><rect width="6" height="6"/></g>
<g transform="translate(336,448) scale(4.8066666666667)"><path d="M0,0v6l1.3-0.4c1.1-0.4,2.4-0.4,3.5,0L6,6C6,2.7,3.3,0,0,0z"/></g>
<g transform="translate(392,448) scale(4.8066666666667)"><rect width="6" height="6"/></g>
<g transform="translate(588,448) scale(4.8066666666667)"><path d="M0,0l0.4,1.3c0.4,1.1,0.4,2.4,0,3.5L0,6c3.3,0,6-2.7,6-6H0z"/></g>
<g transform="translate(644,448) scale(4.8066666666667)"><rect width="6" height="6"/></g>
<g transform="translate(700,448) scale(4.8066666666667)"><path d="M6,6H3C1.3,6,0,4.7,0,3V0l6,0V6z"/></g>
<g transform="translate(728,448) scale(4.8066666666667)"><path d="M6,6H0V0l3,0c1.7,0,3,1.3,3,3V6z"/></g>
<g transform="translate(56,476) scale(4.8066666666667)"><rect width="6" height="6"/></g>
<g transform="translate(112,476) scale(4.8066666666667)"><circle cx="3" cy="3" r="3"/></g>
<g transform="translate(168,476) scale(4.8066666666667)"><path d="M6,6H0V3c0-1.7,1.3-3,3-3l3,0V6z"/></g>
<g transform="translate(196,476) scale(4.8066666666667)"><path d="M3,6H0V0l6,0v3C6,4.7,4.7,6,3,6z"/></g>
<g transform="translate(308,476) scale(4.8066666666667)"><path d="M0,0l0.4,1.3c0.4,1.1,0.4,2.4,0,3.5L0,6c3.3,0,6-2.7,6-6H0z"/></g>
<g transform="translate(364,476) scale(4.8066666666667)"><path d="M6,6H0V3c0-1.7,1.3-3,3-3l3,0V6z"/></g>
<g transform="translate(392,476) scale(4.8066666666667)"><rect width="6" height="6"/></g>
<g transform="translate(420,476) scale(4.8066666666667)"><path d="M6,6H0V0l3,0c1.7,0,3,1.3,3,3V6z"/></g>
<g transform="translate(504,476) scale(4.8066666666667)"><path d="M6,6H0v0c0-3.3,2.7-6,6-6h0L5.6,1.3c-0.4,1.1-0.4,2.4,0,3.5L6,6z"/></g>
<g transform="translate(560,476) scale(4.8066666666667)"><path d="M6,6H0v0c0-3.3,2.7-6,6-6h0L5.6,1.3c-0.4,1.1-0.4,2.4,0,3.5L6,6z"/></g>
<g transform="translate(644,476) scale(4.8066666666667)"><path d="M0,0l0.4,1.3c0.4,1.1,0.4,2.4,0,3.5L0,6c3.3,0,6-2.7,6-6H0z"/></g>
<g transform="translate(728,476) scale(4.8066666666667)"><path d="M0,0l0.4,1.3c0.4,1.1,0.4,2.4,0,3.5L0,6c3.3,0,6-2.7,6-6H0z"/></g>
<g transform="translate(56,504) scale(4.8066666666667)"><path d="M0,0l0.4,1.3c0.4,1.1,0.4,2.4,0,3.5L0,6c3.3,0,6-2.7,6-6H0z"/></g>
<g transform="translate(168,504) scale(4.8066666666667)"><path d="M0,0l0.4,1.3c0.4,1.1,0.4,2.4,0,3.5L0,6c3.3,0,6-2.7,6-6H0z"/></g>
<g transform="translate(224,504) scale(4.8066666666667)"><circle cx="3" cy="3" r="3"/></g>
<g transform="translate(336,504) scale(4.8066666666667)"><path d="M6,6H0V3c0-1.7,1.3-3,3-3l3,0V6z"/></g>
<g transform="translate(364,504) scale(4.8066666666667)"><rect width="6" height="6"/></g>
<g transform="translate(420,504) scale(4.8066666666667)"><rect width="6" height="6"/></g>
<g transform="translate(504,504) scale(4.8066666666667)"><rect width="6" height="6"/></g>
<g transform="translate(532,504) scale(4.8066666666667)"><rect width="6" height="6"/></g>
<g transform="translate(560,504) scale(4.8066666666667)"><rect width="6" height="6"/></g>
<g transform="translate(588,504) scale(4.8066666666667)"><rect width="6" height="6"/></g>
<g transform="translate(616,504) scale(4.8066666666667)"><path d="M6,6H0V0l3,0c1.7,0,3,1.3,3,3V6z"/></g>
<g transform="translate(672,504) scale(4.8066666666667)"><path d="M6,6H0v0c0-3.3,2.7-6,6-6h0L5.6,1.3c-0.4,1.1-0.4,2.4,0,3.5L6,6z"/></g>
<g transform="translate(280,532) scale(4.8066666666667)"><path d="M6,6H0v0c0-3.3,2.7-6,6-6h0L5.6,1.3c-0.4,1.1-0.4,2.4,0,3.5L6,6z"/></g>
<g transform="translate(336,532) scale(4.8066666666667)"><path d="M6,6H3C1.3,6,0,4.7,0,3V0l6,0V6z"/></g>
<g transform="translate(364,532) scale(4.8066666666667)"><rect width="6" height="6"/></g>
<g transform="translate(392,532) scale(4.8066666666667)"><rect width="6" height="6"/></g>
<g transform="translate(420,532) scale(4.8066666666667)"><rect width="6" height="6"/></g>
<g transform="translate(448,532) scale(4.8066666666667)"><rect width="6" height="6"/></g>
<g transform="translate(476,532) scale(4.8066666666667)"><rect width="6" height="6"/></g>
<g transform="translate(504,532) scale(4.8066666666667)"><rect width="6" height="6"/></g>
<g transform="translate(616,532) scale(4.8066666666667)"><rect width="6" height="6"/></g>
<g transform="translate(644,532) scale(4.8066666666667)"><rect width="6" height="6"/></g>
<g transform="translate(672,532) scale(4.8066666666667)"><rect width="6" height="6"/></g>
<g transform="translate(280,560) scale(4.8066666666667)"><rect width="6" height="6"/></g>
<g transform="translate(308,560) scale(4.8066666666667)"><path d="M0,0v6l1.3-0.4c1.1-0.4,2.4-0.4,3.5,0L6,6C6,2.7,3.3,0,0,0z"/></g>
<g transform="translate(364,560) scale(4.8066666666667)"><path d="M6,6H3C1.3,6,0,4.7,0,3V0l6,0V6z"/></g>
<g transform="translate(392,560) scale(4.8066666666667)"><rect width="6" height="6"/></g>
<g transform="translate(476,560) scale(4.8066666666667)"><rect width="6" height="6"/></g>
<g transform="translate(504,560) scale(4.8066666666667)"><rect width="6" height="6"/></g>
<g transform="translate(560,560) scale(4.8066666666667)"><circle cx="3" cy="3" r="3"/></g>
<g transform="translate(616,560) scale(4.8066666666667)"><rect width="6" height="6"/></g>
<g transform="translate(644,560) scale(4.8066666666667)"><rect width="6" height="6"/></g>
<g transform="translate(672,560) scale(4.8066666666667)"><rect width="6" height="6"/></g>
<g transform="translate(700,560) scale(4.8066666666667)"><rect width="6" height="6"/></g>
<g transform="translate(728,560) scale(4.8066666666667)"><path d="M6,6H0V0l3,0c1.7,0,3,1.3,3,3V6z"/></g>
<g transform="translate(280,588) scale(4.8066666666667)"><rect width="6" height="6"/></g>
<g transform="translate(392,588) scale(4.8066666666667)"><path d="M6,6H3C1.3,6,0,4.7,0,3V0l6,0V6z"/></g>
<g transform="translate(420,588) scale(4.8066666666667)"><rect width="6" height="6"/></g>
<g transform="translate(448,588) scale(4.8066666666667)"><rect width="6" height="6"/></g>
<g transform="translate(476,588) scale(4.8066666666667)"><rect width="6" height="6"/></g>
<g transform="translate(504,588) scale(4.8066666666667)"><rect width="6" height="6"/></g>
<g transform="translate(616,588) scale(4.8066666666667)"><rect width="6" height="6"/></g>
<g transform="translate(644,588) scale(4.8066666666667)"><rect width="6" height="6"/></g>
<g transform="translate(700,588) scale(4.8066666666667)"><rect width="6" height="6"/></g>
<g transform="translate(728,588) scale(4.8066666666667)"><path d="M3,6H0V0l6,0v3C6,4.7,4.7,6,3,6z"/></g>
<g transform="translate(280,616) scale(4.8066666666667)"><rect width="6" height="6"/></g>
<g transform="translate(308,616) scale(4.8066666666667)"><rect width="6" height="6"/></g>
<g transform="translate(336,616) scale(4.8066666666667)"><rect width="6" height="6"/></g>
<g transform="translate(364,616) scale(4.8066666666667)"><path d="M0,0v6l1.3-0.4c1.1-0.4,2.4-0.4,3.5,0L6,6C6,2.7,3.3,0,0,0z"/></g>
<g transform="translate(476,616) scale(4.8066666666667)"><path d="M6,6H3C1.3,6,0,4.7,0,3V0l6,0V6z"/></g>
<g transform="translate(504,616) scale(4.8066666666667)"><rect width="6" height="6"/></g>
<g transform="translate(532,616) scale(4.8066666666667)"><rect width="6" height="6"/></g>
<g transform="translate(560,616) scale(4.8066666666667)"><rect width="6" height="6"/></g>
<g transform="translate(588,616) scale(4.8066666666667)"><rect width="6" height="6"/></g>
<g transform="translate(616,616) scale(4.8066666666667)"><rect width="6" height="6"/></g>
<g transform="translate(644,616) scale(4.8066666666667)"><rect width="6" height="6"/></g>
<g transform="translate(672,616) scale(4.8066666666667)"><rect width="6" height="6"/></g>
<g transform="translate(700,616) scale(4.8066666666667)"><path d="M3,6H0V0l6,0v3C6,4.7,4.7,6,3,6z"/></g>
<g transform="translate(280,644) scale(4.8066666666667)"><rect width="6" height="6"/></g>
<g transform="translate(308,644) scale(4.8066666666667)"><rect width="6" height="6"/></g>
<g transform="translate(336,644) scale(4.8066666666667)"><rect width="6" height="6"/></g>
<g transform="translate(392,644) scale(4.8066666666667)"><path d="M6,6H0v0c0-3.3,2.7-6,6-6h0L5.6,1.3c-0.4,1.1-0.4,2.4,0,3.5L6,6z"/></g>
<g transform="translate(448,644) scale(4.8066666666667)"><circle cx="3" cy="3" r="3"/></g>
<g transform="translate(532,644) scale(4.8066666666667)"><path d="M6,6H3C1.3,6,0,4.7,0,3V0l6,0V6z"/></g>
<g transform="translate(560,644) scale(4.8066666666667)"><path d="M3,6H0V0l6,0v3C6,4.7,4.7,6,3,6z"/></g>
<g transform="translate(616,644) scale(4.8066666666667)"><path d="M0,0l0.4,1.3c0.4,1.1,0.4,2.4,0,3.5L0,6c3.3,0,6-2.7,6-6H0z"/></g>
<g transform="translate(672,644) scale(4.8066666666667)"><rect width="6" height="6"/></g>
<g transform="translate(728,644) scale(4.8066666666667)"><path d="M6,6H0v0c0-3.3,2.7-6,6-6h0L5.6,1.3c-0.4,1.1-0.4,2.4,0,3.5L6,6z"/></g>
<g transform="translate(280,672) scale(4.8066666666667)"><rect width="6" height="6"/></g>
<g transform="translate(336,672) scale(4.8066666666667)"><path d="M0,0l0.4,1.3c0.4,1.1,0.4,2.4,0,3.5L0,6c3.3,0,6-2.7,6-6H0z"/></g>
<g transform="translate(392,672) scale(4.8066666666667)"><rect width="6" height="6"/></g>
<g transform="translate(476,672) scale(4.8066666666667)"><path d="M4.7,0.4c-1.1,0.4-2.4,0.4-3.5,0L0,0c0,3.3,2.7,6,6,6V0L4.7,0.4z"/></g>
<g transform="translate(504,672) scale(4.8066666666667)"><path d="M6,6H0V0l3,0c1.7,0,3,1.3,3,3V6z"/></g>
<g transform="translate(588,672) scale(4.8066666666667)"><path d="M6,6H0v0c0-3.3,2.7-6,6-6h0L5.6,1.3c-0.4,1.1-0.4,2.4,0,3.5L6,6z"/></g>
<g transform="translate(672,672) scale(4.8066666666667)"><path d="M0,0l0.4,1.3c0.4,1.1,0.4,2.4,0,3.5L0,6c3.3,0,6-2.7,6-6H0z"/></g>
<g transform="translate(728,672) scale(4.8066666666667)"><rect width="6" height="6"/></g>
<g transform="translate(280,700) scale(4.8066666666667)"><path d="M0,0l0.4,1.3c0.4,1.1,0.4,2.4,0,3.5L0,6c3.3,0,6-2.7,6-6H0z"/></g>
<g transform="translate(364,700) scale(4.8066666666667)"><path d="M6,6H0V3c0-1.7,1.3-3,3-3l3,0V6z"/></g>
<g transform="translate(392,700) scale(4.8066666666667)"><rect width="6" height="6"/></g>
<g transform="translate(420,700) scale(4.8066666666667)"><rect width="6" height="6"/></g>
<g transform="translate(448,700) scale(4.8066666666667)"><path d="M6,6H0V0l3,0c1.7,0,3,1.3,3,3V6z"/></g>
<g transform="translate(504,700) scale(4.8066666666667)"><path d="M0,0l0.4,1.3c0.4,1.1,0.4,2.4,0,3.5L0,6c3.3,0,6-2.7,6-6H0z"/></g>
<g transform="translate(560,700) scale(4.8066666666667)"><path d="M6,6H0V3c0-1.7,1.3-3,3-3l3,0V6z"/></g>
<g transform="translate(588,700) scale(4.8066666666667)"><rect width="6" height="6"/></g>
<g transform="translate(616,700) scale(4.8066666666667)"><rect width="6" height="6"/></g>
<g transform="translate(644,700) scale(4.8066666666667)"><path d="M6,6H0V0l3,0c1.7,0,3,1.3,3,3V6z"/></g>
<g transform="translate(728,700) scale(4.8066666666667)"><rect width="6" height="6"/></g>
<g transform="translate(308,728) scale(4.8066666666667)"><circle cx="3" cy="3" r="3"/></g>
<g transform="translate(364,728) scale(4.8066666666667)"><path d="M0,0l0.4,1.3c0.4,1.1,0.4,2.4,0,3.5L0,6c3.3,0,6-2.7,6-6H0z"/></g>
<g transform="translate(448,728) scale(4.8066666666667)"><path d="M0,0l0.4,1.3c0.4,1.1,0.4,2.4,0,3.5L0,6c3.3,0,6-2.7,6-6H0z"/></g>
<g transform="translate(532,728) scale(4.8066666666667)"><path d="M4.7,0.4c-1.1,0.4-2.4,0.4-3.5,0L0,0c0,3.3,2.7,6,6,6V0L4.7,0.4z"/></g>
<g transform="translate(560,728) scale(4.8066666666667)"><rect width="6" height="6"/></g>
<g transform="translate(588,728) scale(4.8066666666667)"><rect width="6" height="6"/></g>
<g transform="translate(616,728) scale(4.8066666666667)"><rect width="6" height="6"/></g>
<g transform="translate(644,728) scale(4.8066666666667)"><rect width="6" height="6"/></g>
<g transform="translate(672,728) scale(4.8066666666667)"><rect width="6" height="6"/></g>
<g transform="translate(700,728) scale(4.8066666666667)"><rect width="6" height="6"/></g>
<g transform="translate(728,728) scale(4.8066666666667)"><path d="M3,6H0V0l6,0v3C6,4.7,4.7,6,3,6z"/></g>
<g transform="translate(56,56)"><g transform="scale(14)"><path d="M13.8,1.1c-3.5,3.9-3.8-1.9-12.8-0.9c3.9,3.5-1.9,3.8-0.9,12.8c3.5-3.9,3.8,1.9,12.8,0.9C9.1,10.4,14.9,10.1,13.8,1.1z
     M9.4,13.2c-6.5-1.6-5.2-5.6-8.6-3.8c1.6-6.5,5.6-5.2,3.8-8.6c6.5,1.6,5.2,5.6,8.6,3.8C11.7,11.1,7.6,9.8,9.4,13.2z"/><path d="M5.8,4.6"/></g></g>
<g transform="translate(560,56)"><g transform="scale(14)"><path d="M13.8,1.1c-3.5,3.9-3.8-1.9-12.8-0.9c3.9,3.5-1.9,3.8-0.9,12.8c3.5-3.9,3.8,1.9,12.8,0.9C9.1,10.4,14.9,10.1,13.8,1.1z
     M9.4,13.2c-6.5-1.6-5.2-5.6-8.6-3.8c1.6-6.5,5.6-5.2,3.8-8.6c6.5,1.6,5.2,5.6,8.6,3.8C11.7,11.1,7.6,9.8,9.4,13.2z"/><path d="M5.8,4.6"/></g></g>
<g transform="translate(56,560)"><g transform="scale(14)"><path d="M13.8,1.1c-3.5,3.9-3.8-1.9-12.8-0.9c3.9,3.5-1.9,3.8-0.9,12.8c3.5-3.9,3.8,1.9,12.8,0.9C9.1,10.4,14.9,10.1,13.8,1.1z
     M9.4,13.2c-6.5-1.6-5.2-5.6-8.6-3.8c1.6-6.5,5.6-5.2,3.8-8.6c6.5,1.6,5.2,5.6,8.6,3.8C11.7,11.1,7.6,9.8,9.4,13.2z"/><path d="M5.8,4.6"/></g></g>
<g transform="translate(112,112)"><g transform="scale(14)"><path d="M5.1,1.9H0.9C0.4,1.9,0,1.5,0,1v0c0-0.5,0.4-0.9,0.9-0.9h4.2C5.6,0.1,6,0.5,6,1v0C6,1.5,5.6,1.9,5.1,1.9z"/><path d="M5.1,3.9H0.9C0.4,3.9,0,3.5,0,3v0c0-0.5,0.4-0.9,0.9-0.9h4.2C5.6,2.1,6,2.5,6,3v0C6,3.5,5.6,3.9,5.1,3.9z"/><path d="M5.1,5.9H0.9C0.4,5.9,0,5.5,0,5v0c0-0.5,0.4-0.9,0.9-0.9h4.2C5.6,4.1,6,4.5,6,5v0C6,5.5,5.6,5.9,5.1,5.9z"/></g></g>
<g transform="translate(616,112)"><g transform="scale(14)"><path d="M5.1,1.9H0.9C0.4,1.9,0,1.5,0,1v0c0-0.5,0.4-0.9,0.9-0.9h4.2C5.6,0.1,6,0.5,6,1v0C6,1.5,5.6,1.9,5.1,1.9z"/><path d="M5.1,3.9H0.9C0.4,3.9,0,3.5,0,3v0c0-0.5,0.4-0.9,0.9-0.9h4.2C5.6,2.1,6,2.5,6,3v0C6,3.5,5.6,3.9,5.1,3.9z"/><path d="M5.1,5.9H0.9C0.4,5.9,0,5.5,0,5v0c0-0.5,0.4-0.9,0.9-0.9h4.2C5.6,4.1,6,4.5,6,5v0C6,5.5,5.6,5.9,5.1,5.9z"/></g></g>
<g transform="translate(112,616)"><g transform="scale(14)"><path d="M5.1,1.9H0.9C0.4,1.9,0,1.5,0,1v0c0-0.5,0.4-0.9,0.9-0.9h4.2C5.6,0.1,6,0.5,6,1v0C6,1.5,5.6,1.9,5.1,1.9z"/><path d="M5.1,3.9H0.9C0.4,3.9,0,3.5,0,3v0c0-0.5,0.4-0.9,0.9-0.9h4.2C5.6,2.1,6,2.5,6,3v0C6,3.5,5.6,3.9,5.1,3.9z"/><path d="M5.1,5.9H0.9C0.4,5.9,0,5.5,0,5v0c0-0.5,0.4-0.9,0.9-0.9h4.2C5.6,4.1,6,4.5,6,5v0C6,5.5,5.6,5.9,5.1,5.9z"/></g></g>
</g></svg>